<svg xmlns="http://www.w3.org/2000/svg" xmlns:xlink="http://www.w3.org/1999/xlink" version="1.1" x="0px" y="0px" viewBox="0 0 96 96" enable-background="new 0 0 96 96" xml:space="preserve"><path fill="white" d="M52.934,44.708c0.066-1.008,0.162-2.006,0.285-2.994c0.322-2.549,0.836-5.043,1.527-7.461  c0.186-0.65,0.383-1.294,0.594-1.934c0.834-2.516,1.859-4.944,3.063-7.262c0.428-0.83,0.881-1.641,1.352-2.439  c1.076-1.814,2.258-3.554,3.543-5.211l-2.281,2.286l-3.996,3.995l-3.801,3.797l-3.729,3.73l-4,3.996l-5.76,5.763l-7.027,7.026  l5.822,5.823l5.449,5.45l5.135,5.137l4.109,4.111l3.471,3.467l3.217,3.218l3.387,3.386c-1.896-2.439-3.57-5.057-4.988-7.828  c-0.285-0.553-0.559-1.113-0.822-1.679c-0.93-1.997-1.736-4.069-2.4-6.198c-0.412-1.328-0.773-2.68-1.076-4.053  c-0.33-1.489-0.594-3.004-0.787-4.539c-0.158-1.269-0.271-2.545-0.332-3.839c-0.023-0.503-0.039-1.007-0.051-1.508  c-0.006-0.316-0.01-0.63-0.01-0.945c0-0.313,0.004-0.632,0.01-0.942C52.852,46.274,52.885,45.485,52.934,44.708z"/></svg>
